<svg version="1.1" id="Layer_1" xmlns="http://www.w3.org/2000/svg" xmlns:xlink="http://www.w3.org/1999/xlink" x="0px" y="0px"
	 width="100%" viewBox="0 0 500 500" enable-background="new 0 0 500 500" xml:space="preserve">
<path fill="#FFFFFF" opacity="1.000000" stroke="none" 
	d="
M230.000000,501.000000 
	C154.666687,501.000000 79.833313,500.970062 5.000216,501.096252 
	C1.575870,501.102051 0.903036,500.423798 0.905301,497.000000 
	C1.013779,333.000092 1.013772,169.000122 0.905333,5.000235 
	C0.903070,1.576909 1.575829,0.903023 4.999888,0.905288 
	C168.999771,1.013774 332.999725,1.013761 496.999634,0.905352 
	C500.422668,0.903090 501.096985,1.575449 501.094727,4.999768 
	C500.986206,168.999649 500.986237,332.999634 501.094604,496.999542 
	C501.096893,500.422333 500.425354,501.100525 497.000305,501.095856 
	C408.166992,500.974670 319.333466,501.000000 230.000000,501.000000 
z"/>
<path fill="#42403F" opacity="1.000000" stroke="none" 
	d="
M238.803009,358.999451 
	C238.802948,340.334595 238.882431,322.169098 238.738297,304.005432 
	C238.707901,300.173523 239.578842,296.938568 241.684967,293.733582 
	C245.304520,288.225555 248.564087,282.480957 252.853867,277.030609 
	C252.853867,287.082184 253.016708,297.137817 252.767853,307.183228 
	C252.677536,310.828033 253.597900,312.032928 257.406311,312.123474 
	C266.402069,312.337250 275.368896,312.818604 284.272491,311.009186 
	C297.109253,308.400482 305.336395,301.045715 308.230835,288.044220 
	C310.291809,278.786804 310.298767,269.571594 308.005524,260.363739 
	C304.963043,248.147720 296.916138,241.064133 284.999573,237.959930 
	C283.398041,237.542755 281.789612,237.152054 280.077850,236.722336 
	C280.615479,234.797073 281.098114,233.203522 283.357208,232.796112 
	C294.959412,230.703857 313.039429,238.910126 319.419220,249.244522 
	C327.853485,262.906830 326.023407,281.992767 315.112671,295.382660 
	C309.990631,301.668549 303.980743,306.838989 296.734711,310.464569 
	C294.241241,311.712189 293.752899,312.668182 295.550568,315.152588 
	C310.684021,336.067047 325.509705,357.236877 343.686829,375.703217 
	C352.839294,385.001343 362.716614,393.459686 376.052673,396.294983 
	C377.991241,396.707153 379.994965,396.816010 381.970276,397.050568 
	C383.036865,397.177216 383.937195,397.475677 383.966064,398.780273 
	C383.995911,400.128326 383.048340,400.495514 382.002167,400.483856 
	C371.681976,400.369110 361.328522,401.245789 351.053650,400.020508 
	C347.164185,399.556702 344.321564,396.525360 341.518860,393.917450 
	C327.173767,380.569458 315.476105,364.968842 303.900146,349.293182 
	C296.782501,339.654785 289.965698,329.791321 283.156006,319.930695 
	C281.668243,317.776367 280.336548,316.688843 277.495941,317.276978 
	C270.794189,318.664581 263.973602,319.316620 257.166840,318.116486 
	C253.507217,317.471283 252.749008,318.796082 252.777313,322.268158 
	C252.936218,341.764923 252.814270,361.263733 252.868591,380.761627 
	C252.902542,392.949982 256.324219,396.418823 268.568207,396.974609 
	C270.398529,397.057678 272.232758,397.061310 274.061951,397.160553 
	C275.300415,397.227783 277.028778,396.752655 277.004700,398.818359 
	C276.981354,400.821228 275.276337,400.523132 274.025452,400.493683 
	C269.368561,400.384155 264.713379,400.026672 260.058472,400.042206 
	C246.067749,400.088898 232.071915,399.691772 218.085770,400.471649 
	C216.653366,400.551514 214.244522,401.430542 214.132217,398.888306 
	C214.009888,396.119202 216.531693,397.539978 217.905350,397.148560 
	C218.060272,397.104401 218.237137,397.140076 218.403595,397.133057 
	C236.133743,396.386658 238.802490,393.621521 238.802856,375.997589 
	C238.802963,370.498199 238.802902,364.998840 238.803009,358.999451 
z"/>
<path fill="#434140" opacity="1.000000" stroke="none" 
	d="
M228.868668,214.161545 
	C226.082367,208.094742 223.352463,202.402786 220.812302,196.627380 
	C219.762543,194.240692 218.471573,193.106964 215.615585,193.128616 
	C196.797256,193.271271 177.977066,193.248016 159.158188,193.147552 
	C156.626816,193.134048 155.273666,193.889755 154.307831,196.277740 
	C148.455750,210.746887 142.431442,225.146286 136.549774,239.603622 
	C135.109528,243.143829 134.006744,246.814087 133.879303,250.700134 
	C133.630692,258.282104 137.032318,262.963379 144.412262,264.870544 
	C148.935013,266.039337 153.581665,266.462372 158.241074,266.734344 
	C159.479721,266.806641 161.225403,266.483002 161.144577,268.515839 
	C161.061188,270.613373 159.264709,269.992188 158.093536,269.986359 
	C146.272995,269.927399 134.482468,268.616882 122.645172,269.154297 
	C115.659821,269.471375 108.672722,269.757874 101.684097,269.987701 
	C100.490013,270.027008 98.750832,270.545013 98.746590,268.393921 
	C98.743301,266.726501 100.158562,266.727692 101.286285,266.698364 
	C114.031334,266.366882 121.056961,258.358582 126.123924,247.972977 
	C137.200638,225.269394 145.919815,201.552429 155.773605,178.323013 
	C166.277817,153.560303 176.438553,128.651978 186.787689,103.823227 
	C187.443497,102.249809 187.400467,99.821098 189.786072,99.764267 
	C192.180786,99.707222 192.286423,102.154541 193.005188,103.694290 
	C208.247696,136.347046 223.410675,169.036987 238.687561,201.673584 
	C240.014526,204.508438 240.280258,206.745956 238.289368,209.438034 
	C235.947906,212.604156 234.127365,216.155487 231.732681,220.115677 
	C230.634613,217.858978 229.818069,216.180878 228.868668,214.161545 
z"/>
<path fill="#474544" opacity="1.000000" stroke="none" 
	d="
M288.479248,184.544006 
	C242.836533,249.507919 197.417358,314.190918 151.998154,378.873932 
	C151.807159,379.145935 151.652908,379.456024 151.418304,379.683014 
	C150.198013,380.863800 149.972702,383.708496 146.999420,381.757355 
	C144.000214,379.789215 146.258163,378.409485 147.238907,377.003510 
	C158.471390,360.900513 169.749023,344.828888 181.035446,328.763550 
	C223.983170,267.630798 266.933289,206.499756 309.929199,145.400879 
	C310.777863,144.194870 311.097626,141.722275 313.255432,142.406754 
	C315.954865,143.263092 316.549469,144.788361 314.569977,147.531525 
	C305.807617,159.674377 297.301605,172.002228 288.479248,184.544006 
z"/>
<path fill="#FDFDFD" opacity="1.000000" stroke="none" 
	d="
M208.773224,171.297012 
	C211.088577,176.317825 213.196426,181.019043 215.436493,185.656418 
	C216.350830,187.549271 216.098434,188.448502 213.852844,188.447189 
	C195.391586,188.436401 176.930344,188.441101 157.823486,188.441101 
	C167.131760,165.982895 176.190079,144.127747 185.531952,121.588470 
	C193.433273,138.482605 201.026108,154.717163 208.773224,171.297012 
z"/>
</svg>